<?xml version="1.0" encoding="UTF-8"?>
<svg width="49px" height="49px" viewBox="0 0 49 49" version="1.1" xmlns="http://www.w3.org/2000/svg" xmlns:xlink="http://www.w3.org/1999/xlink">
    <!-- Generator: Sketch 49.3 (51167) - http://www.bohemiancoding.com/sketch -->
    <title>person</title>
    <desc>Created with Sketch.</desc>
    <defs></defs>
    <g id="Project-Page-telekom" stroke="none" stroke-width="1" fill="none" fill-rule="evenodd">
        <g id="Desktop-Alternate" transform="translate(-530.000000, -564.000000)">
            <g id="Content" transform="translate(121.000000, 225.000000)">
                <g id="Team" transform="translate(409.000000, 292.000000)">
                    <g id="List-item-group" transform="translate(0.000000, 47.000000)">
                        <g id="List-item">
                            <g id="person">
                                <circle id="Oval" fill="#E3E3E3" cx="24.5" cy="24.5" r="24.5"></circle>
                                <path d="M25,24.616 C25.992005,24.616 27.0799941,24.7599986 28.264,25.048 C29.6080067,25.3840017 30.6959958,25.8319972 31.528,26.392 C32.520005,27.0480033 33.016,27.7839959 33.016,28.6 L33.016,30.616 L16.984,30.616 L16.984,28.6 C16.984,27.7839959 17.479995,27.0480033 18.472,26.392 C19.3040042,25.8319972 20.3919933,25.3840017 21.736,25.048 C22.9200059,24.7599986 24.007995,24.616 25,24.616 Z M25,22.6 C24.2799964,22.6 23.616003,22.4200018 23.008,22.06 C22.399997,21.6999982 21.9160018,21.216003 21.556,20.608 C21.1959982,19.999997 21.016,19.3360036 21.016,18.616 C21.016,17.8959964 21.1959982,17.2240031 21.556,16.6 C21.9160018,15.9759969 22.399997,15.4840018 23.008,15.124 C23.616003,14.7639982 24.2799964,14.584 25,14.584 C25.7200036,14.584 26.383997,14.7639982 26.992,15.124 C27.600003,15.4840018 28.0839982,15.9759969 28.444,16.6 C28.8040018,17.2240031 28.984,17.8959964 28.984,18.616 C28.984,19.3360036 28.8040018,19.999997 28.444,20.608 C28.0839982,21.216003 27.600003,21.6999982 26.992,22.06 C26.383997,22.4200018 25.7200036,22.6 25,22.6 Z" id="person---material" fill="#FFFFFF"></path>
                            </g>
                        </g>
                    </g>
                </g>
            </g>
        </g>
    </g>
</svg>