<?xml version="1.0" encoding="UTF-8"?>
<svg width="23px" height="23px" viewBox="0 0 23 23" version="1.1" xmlns="http://www.w3.org/2000/svg" xmlns:xlink="http://www.w3.org/1999/xlink">
    <!-- Generator: Sketch 45.2 (43514) - http://www.bohemiancoding.com/sketch -->
    <title>search_outline</title>
    <desc>Created with Sketch.</desc>
    <defs></defs>
    <g id="Shared" stroke="none" stroke-width="1" fill="none" fill-rule="evenodd">
        <g id="Header-Telekom" transform="translate(-932.000000, -27.000000)">
            <g id="search_outline" transform="translate(931.000000, 26.000000)">
                <rect id="Rectangle-path" x="0" y="0" width="24.604367" height="24.604367"></rect>
                <path d="M14.2243997,2.69110264 C18.4708424,2.69110264 21.9132643,6.13352461 21.9132643,10.3799673 C21.9132643,14.62641 18.4708424,18.068832 14.2243997,18.068832 C12.6188104,18.0705322 11.0552699,17.5556422 9.76485815,16.6002589 L9.71872496,16.6002589 C9.04227969,16.1322651 8.45180011,15.5508898 7.97335268,14.8817976 C6.28087759,12.5384446 6.04572079,9.44384118 7.3646672,6.87165233 C8.68361361,4.29946348 11.3337717,2.68436875 14.2243997,2.69110264 L14.2243997,2.69110264 Z M14.2243997,1.53777294 C10.9090823,1.53680913 7.87178902,3.3904947 6.35681667,6.33942483 C4.84184432,9.28835497 5.10377824,12.8369732 7.03531119,15.5315067 C7.59523951,16.3094365 8.28440725,16.9856011 9.07286033,17.5306115 C10.5632294,18.6342093 12.3699186,19.2274505 14.2243997,19.2221617 C19.1078088,19.2221617 23.0665941,15.2633764 23.0665941,10.3799673 C23.0665941,5.49655821 19.1078088,1.53777294 14.2243997,1.53777294 Z M6.67777898,16.3042376 L1.88377185,21.0944003 C1.41772476,21.5296606 1.3927672,22.2603147 1.82802758,22.7263618 C2.26328796,23.1924089 2.99394202,23.2173664 3.45998911,22.7821061 L3.51765559,22.7244396 L8.32319602,17.9227436 C7.70882091,17.4546085 7.15598076,16.9108101 6.67777898,16.3042376 L6.67777898,16.3042376 Z" id="Shape" fill="#383838" fill-rule="nonzero"></path>
            </g>
        </g>
    </g>
</svg>