<?xml version="1.0" encoding="UTF-8"?>
<svg width="24px" height="15px" viewBox="0 0 24 15" version="1.1" xmlns="http://www.w3.org/2000/svg" xmlns:xlink="http://www.w3.org/1999/xlink">
    <!-- Generator: Sketch 45.2 (43514) - http://www.bohemiancoding.com/sketch -->
    <title>communities_solid</title>
    <desc>Created with Sketch.</desc>
    <defs></defs>
    <g id="Start-Page-Telekom-2" stroke="none" stroke-width="1" fill="none" fill-rule="evenodd">
        <g id="Desktop" transform="translate(-289.000000, -329.000000)">
            <g id="Card-List" transform="translate(271.000000, 129.000000)">
                <g id="Card-row">
                    <g id="Card-2">
                        <g id="Card-content" transform="translate(18.000000, 51.000000)">
                            <g id="People" transform="translate(0.000000, 144.000000)">
                                <g id="communities_solid">
                                    <rect id="Rectangle-path" x="0" y="0" width="24" height="24"></rect>
                                    <path d="M16.875,10.125 L16.875,8.625 C16.875,7.38235931 17.8823593,6.375 19.125,6.375 C20.3676407,6.375 21.375,7.38235931 21.375,8.625 L21.375,10.125 C21.375,11.3676407 20.3676407,12.375 19.125,12.375 C17.8823593,12.375 16.875,11.3676407 16.875,10.125 L16.875,10.125 Z M4.875,12.375 C6.11764069,12.375 7.125,11.3676407 7.125,10.125 L7.125,8.625 C7.125,7.38235931 6.11764069,6.375 4.875,6.375 C3.63235931,6.375 2.625,7.38235931 2.625,8.625 L2.625,10.125 C2.625,11.3676407 3.63235931,12.375 4.875,12.375 Z M8.09625,13.725 C7.63231044,13.334898 7.04489515,13.122259 6.43875,13.125 L3.31875,13.125 C2.63946338,13.123008 1.98720756,13.3909446 1.50547285,13.8698662 C1.02373815,14.3487879 0.751986214,14.9994634 0.75,15.67875 L0.75,15.67875 L0.75,16.875 L5.0775,16.875 C5.50965409,15.3965946 6.63894871,14.2238655 8.1,13.73625 L8.09625,13.725 Z M20.68875,13.125 L17.56875,13.125 C16.9616586,13.1243554 16.3741349,13.3396922 15.91125,13.7325 C17.3775085,14.2177467 18.5116732,15.3925675 18.945,16.875 L23.25,16.875 L23.25,15.6825 C23.2479311,14.2694254 22.1018261,13.1249985 20.68875,13.125 L20.68875,13.125 Z M12,13.5 C13.6568542,13.5 15,12.1568542 15,10.5 L15,7.98 C15,6.32314575 13.6568542,4.98 12,4.98 C10.3431458,4.98 9,6.32314575 9,7.98 L9,10.5 C9,12.1568542 10.3431458,13.5 12,13.5 Z M18.375,18.19125 L18.375,19.875 L5.625,19.875 L5.625,18.19125 C5.62300898,17.1479541 6.03554818,16.1465981 6.7718633,15.4074699 C7.50817842,14.6683417 8.50795405,14.2519872 9.55125,14.25 L14.46375,14.25 C16.630437,14.2623891 18.3791664,16.0245315 18.375,18.19125 L18.375,18.19125 Z" id="Shape" fill="#383838" fill-rule="nonzero"></path>
                                </g>
                            </g>
                        </g>
                    </g>
                </g>
            </g>
        </g>
    </g>
</svg>