<?xml version="1.0" encoding="UTF-8"?>
<svg width="21px" height="21px" viewBox="0 0 21 21" version="1.1" xmlns="http://www.w3.org/2000/svg" xmlns:xlink="http://www.w3.org/1999/xlink">
    <!-- Generator: Sketch 45.2 (43514) - http://www.bohemiancoding.com/sketch -->
    <title>user-account_outline</title>
    <desc>Created with Sketch.</desc>
    <defs></defs>
    <g id="Shared" stroke="none" stroke-width="1" fill="none" fill-rule="evenodd">
        <g id="Header-Telekom" transform="translate(-983.000000, -28.000000)">
            <g id="user-account_outline" transform="translate(981.000000, 26.000000)">
                <rect id="Rectangle-path" x="0" y="0" width="25" height="25"></rect>
                <path d="M2.34375,22.65625 L2.34375,21.0585937 C2.33959836,19.9324574 2.78297664,18.8507962 3.57634507,18.0515672 C4.36971351,17.2523383 5.4480823,16.8010114 6.57421875,16.796875 L18.4101562,16.796875 C20.7552091,16.796875 22.65625,18.6979159 22.65625,21.0429688 L22.65625,22.65625 L21.484375,22.65625 L21.484375,21.0585937 C21.4874889,20.2422225 21.16617,19.4580512 20.591106,18.8785918 C20.016042,18.2991324 19.2343401,17.9718521 18.4179687,17.96875 L6.58984375,17.96875 C5.77347404,17.9697853 4.99095207,18.2950802 4.41442408,18.8730733 C3.83789608,19.4510665 3.51458834,20.2344115 3.515625,21.0507812 L3.515625,22.65625 L2.34375,22.65625 Z M7.8125,10.546875 L7.8125,7.03125 C7.84410637,4.45562062 9.92437062,2.37535637 12.5,2.34375 C15.0713139,2.38556823 17.1456818,4.4599361 17.1875,7.03125 L17.1875,10.546875 C17.1456818,13.1181889 15.0713139,15.1925568 12.5,15.234375 C9.92437062,15.2027686 7.84410637,13.1225044 7.8125,10.546875 Z M8.984375,10.546875 C8.984375,12.4885011 10.5583739,14.0625 12.5,14.0625 C14.4416261,14.0625 16.015625,12.4885011 16.015625,10.546875 L16.015625,7.03125 C16.015625,5.08962393 14.4416261,3.515625 12.5,3.515625 C10.5583739,3.515625 8.984375,5.08962393 8.984375,7.03125 L8.984375,10.546875 Z" id="Shape" fill="#383838" fill-rule="nonzero"></path>
            </g>
        </g>
    </g>
</svg>