<?xml version="1.0" encoding="UTF-8"?>
<svg width="20px" height="26px" viewBox="0 0 20 26" version="1.1" xmlns="http://www.w3.org/2000/svg" xmlns:xlink="http://www.w3.org/1999/xlink">
    <!-- Generator: Sketch 49.3 (51167) - http://www.bohemiancoding.com/sketch -->
    <title>Shape</title>
    <desc>Created with Sketch.</desc>
    <defs></defs>
    <g id="Project-Page-telekom" stroke="none" stroke-width="1" fill="none" fill-rule="evenodd">
        <g id="Desktop-Alternate" transform="translate(-500.000000, -1172.000000)" fill="#D80074" fill-rule="nonzero">
            <g id="Footer" transform="translate(-1.000000, 1087.000000)">
                <g id="Footer-buttons" transform="translate(113.000000, 65.000000)">
                    <g id="Footer-button" transform="translate(318.000000, 0.000000)">
                        <g id="ic_share_black_24px" transform="translate(67.000000, 18.000000)">
                            <path d="M19.5,20.419894 C18.6766667,20.419894 17.94,20.8089543 17.3766667,21.418482 L9.6525,16.036482 C9.70666667,15.7382025 9.75,15.4399229 9.75,15.1286747 C9.75,14.8174265 9.70666667,14.519147 9.6525,14.2208675 L17.29,8.89074219 C17.875,9.53917593 18.6441667,9.94120484 19.5,9.94120484 C21.2983333,9.94120484 22.75,8.20340243 22.75,6.05060242 C22.75,3.89780242 21.2983333,2.16 19.5,2.16 C17.7016667,2.16 16.25,3.89780242 16.25,6.05060242 C16.25,6.36185062 16.2933333,6.66013013 16.3475,6.95840965 L8.71,12.288535 C8.125,11.6401012 7.35583333,11.2380723 6.5,11.2380723 C4.70166667,11.2380723 3.25,12.9758747 3.25,15.1286747 C3.25,17.2814747 4.70166667,19.0192772 6.5,19.0192772 C7.35583333,19.0192772 8.125,18.6172482 8.71,17.9688145 L16.4233333,23.3637832 C16.3691667,23.6361254 16.3366667,23.9214362 16.3366667,24.2067471 C16.3366667,26.2947037 17.7558333,27.9936001 19.5,27.9936001 C21.2441667,27.9936001 22.6633333,26.2947037 22.6633333,24.2067471 C22.6633333,22.1187904 21.2441667,20.419894 19.5,20.419894 Z" id="Shape"></path>
                        </g>
                    </g>
                </g>
            </g>
        </g>
    </g>
</svg>