<?xml version="1.0" encoding="UTF-8"?>
<svg width="16px" height="17px" viewBox="0 0 16 17" version="1.1" xmlns="http://www.w3.org/2000/svg" xmlns:xlink="http://www.w3.org/1999/xlink">
    <!-- Generator: Sketch 49.3 (51167) - http://www.bohemiancoding.com/sketch -->
    <title>Shape</title>
    <desc>Created with Sketch.</desc>
    <defs></defs>
    <g id="Start-Page-Telekom-2" stroke="none" stroke-width="1" fill="none" fill-rule="evenodd">
        <g id="Desktop" transform="translate(-26.000000, -680.000000)" fill="#202020" fill-rule="nonzero">
            <g id="Side-filter" transform="translate(11.000000, 126.000000)">
                <g id="Filter-technologies" transform="translate(10.000000, 506.000000)">
                    <g id="Search-box" transform="translate(0.000000, 41.000000)">
                        <g id="search_outline" transform="translate(4.000000, 4.000000)">
                            <path d="M10.1602855,4.77935903 C13.1934588,4.77935903 15.6523317,7.23823187 15.6523317,10.2714052 C15.6523317,13.3045786 13.1934588,15.7634514 10.1602855,15.7634514 C9.01343598,15.7646659 7.89662137,15.3968873 6.97489868,14.7144706 L6.9419464,14.7144706 C6.45877121,14.3801894 6.03700008,13.9649213 5.69525191,13.4869983 C4.48634114,11.8131747 4.31837199,9.6027437 5.26047657,7.76546595 C6.20258115,5.9281882 8.09555125,4.77454911 10.1602855,4.77935903 Z M10.1602855,3.9555521 C7.79220164,3.95486367 5.62270644,5.27892478 4.54058334,7.38530345 C3.45846023,9.49168212 3.64555588,12.0264094 5.02522228,13.9510762 C5.42517108,14.5067404 5.91743375,14.9897151 6.48061452,15.3790082 C7.54516387,16.1672923 8.83565612,16.5910361 10.1602855,16.5872584 C13.6484348,16.5872584 16.4761386,13.7595546 16.4761386,10.2714052 C16.4761386,6.78325586 13.6484348,3.9555521 10.1602855,3.9555521 Z M4.76984213,14.5030268 L1.34555132,17.9245716 C1.01266054,18.2354719 0.994833715,18.7573676 1.30573398,19.0902584 C1.61663425,19.4231492 2.13853001,19.440976 2.47142079,19.1300758 L2.51261114,19.0888854 L5.94514001,15.6591026 C5.50630065,15.3247204 5.11141483,14.9362929 4.76984213,14.5030268 Z" id="Shape"></path>
                        </g>
                    </g>
                </g>
            </g>
        </g>
    </g>
</svg>