<?xml version="1.0" encoding="UTF-8"?>
<svg width="80px" height="40px" viewBox="0 0 80 40" version="1.1" xmlns="http://www.w3.org/2000/svg" xmlns:xlink="http://www.w3.org/1999/xlink">
    <!-- Generator: Sketch 45.2 (43514) - http://www.bohemiancoding.com/sketch -->
    <title>Logo Telekom</title>
    <desc>Created with Sketch.</desc>
    <defs></defs>
    <g id="Shared" stroke="none" stroke-width="1" fill="none" fill-rule="evenodd">
        <g id="Logo-Telekom">
            <g id="Logo">
                <g id="Line.ts-logo">
                    <circle id="Oval-" fill="#C41065" cx="5" cy="25" r="5"></circle>
                    <circle id="Oval-" fill="#C41065" cx="26" cy="8" r="5"></circle>
                    <circle id="Oval-3" fill="#C41065" cx="34" cy="28" r="5"></circle>
                    <circle id="Oval-5" fill="#C41065" cx="49" cy="35" r="5"></circle>
                    <circle id="Oval-6" fill="#C41065" cx="57" cy="17" r="5"></circle>
                    <circle id="Oval-6-Copy" fill="#C41065" cx="75" cy="21" r="5"></circle>
                    <circle id="Oval-4" fill="#C41065" cx="44" cy="5" r="5"></circle>
                    <path d="M5.5,25.5 L25.5,9.5" id="Line.ts" stroke="#C41065" fill="#C41065" stroke-linecap="square"></path>
                    <path d="M33.5,27.5 L27.5,8.5" id="Line.ts-Copy" stroke="#C41065" fill="#C41065" stroke-linecap="square"></path>
                    <path d="M34.5,28.5 L44.5,4.5" id="Line.ts-Copy-2" stroke="#C41065" fill="#C41065" stroke-linecap="square"></path>
                    <path d="M49.5,36.5 L44.5,5.5" id="Line.ts-Copy-3" stroke="#C41065" fill="#C41065" stroke-linecap="square"></path>
                    <path d="M49.5,34.5 L56.5,18.5" id="Line.ts-Copy-4" stroke="#C41065" fill="#C41065" stroke-linecap="round"></path>
                    <path d="M57.5,17.5 L74.5,20.5" id="Line.ts-Copy-5" stroke="#C41065" fill="#C41065" stroke-linecap="round"></path>
                    <path d="M8,27.640625 L7.640625,28 L5.875,26.234375 C5.44791453,26.5781267 4.94791953,26.75 4.375,26.75 C3.71874672,26.75 3.15885648,26.5182315 2.6953125,26.0546875 C2.23176852,25.5911435 2,25.0312533 2,24.375 C2,23.7187467 2.23176852,23.1588565 2.6953125,22.6953125 C3.15885648,22.2317685 3.71874672,22 4.375,22 C5.03125328,22 5.59114352,22.2317685 6.0546875,22.6953125 C6.51823148,23.1588565 6.75,23.7187467 6.75,24.375 C6.75,24.9375028 6.57812672,25.4322895 6.234375,25.859375 L8,27.640625 Z M2.875,25.890625 C3.28125203,26.296877 3.78124703,26.5 4.375,26.5 C4.95833625,26.5 5.45833125,26.2916687 5.875,25.875 C6.29166875,25.4583313 6.5,24.9583363 6.5,24.375 C6.5,23.7916637 6.29166875,23.2916687 5.875,22.875 C5.45833125,22.4583313 4.95833625,22.25 4.375,22.25 C3.79166375,22.25 3.29166875,22.4583313 2.875,22.875 C2.45833125,23.2916687 2.25,23.7916637 2.25,24.375 C2.25,24.968753 2.45833125,25.4739563 2.875,25.890625 Z" id="ion-ios-search---Ionicons" fill="#FFFFFF"></path>
                    <path d="M26,9.646 C26.0680003,9.646 26.1259998,9.62200024 26.174,9.574 C26.2220002,9.52599976 26.246,9.46800034 26.246,9.4 C26.246,9.33199966 26.2220002,9.27400024 26.174,9.226 C26.1259998,9.17799976 26.0680003,9.154 26,9.154 C25.9319997,9.154 25.8740002,9.17799976 25.826,9.226 C25.7779998,9.27400024 25.754,9.33199966 25.754,9.4 C25.754,9.46800034 25.7779998,9.52599976 25.826,9.574 C25.8740002,9.62200024 25.9319997,9.646 26,9.646 Z M23.996,6.154 L23.996,8.896 L28.004,8.896 L28.004,6.154 L23.996,6.154 Z M28.004,9.4 L29,9.4 C29,9.53600068 28.9500005,9.6539995 28.85,9.754 C28.7499995,9.8540005 28.6320007,9.904 28.496,9.904 L23.504,9.904 C23.3679993,9.904 23.2500005,9.8540005 23.15,9.754 C23.0499995,9.6539995 23,9.53600068 23,9.4 L23.996,9.4 C23.8599993,9.4 23.7440005,9.3500005 23.648,9.25 C23.5519995,9.1499995 23.504,9.03200068 23.504,8.896 L23.504,6.154 C23.504,6.01799932 23.5519995,5.9000005 23.648,5.8 C23.7440005,5.6999995 23.8599993,5.65 23.996,5.65 L28.004,5.65 C28.1400007,5.65 28.2559995,5.6999995 28.352,5.8 C28.4480005,5.9000005 28.496,6.01799932 28.496,6.154 L28.496,8.896 C28.496,9.03200068 28.4480005,9.1499995 28.352,9.25 C28.2559995,9.3500005 28.1400007,9.4 28.004,9.4 Z" id="" fill="#FFFFFF"></path>
                    <path d="M34.996,29.4 L34.996,25.896 L32.746,25.896 L32.746,29.4 L34.996,29.4 Z M33.874,30.396 C33.9780005,30.396 34.0659996,30.3600004 34.138,30.288 C34.2100004,30.2159996 34.246,30.1280005 34.246,30.024 C34.246,29.9199995 34.2100004,29.8310004 34.138,29.757 C34.0659996,29.6829996 33.9780005,29.646 33.874,29.646 C33.7699995,29.646 33.6810004,29.6819996 33.607,29.754 C33.5329996,29.8260004 33.496,29.9159995 33.496,30.024 C33.496,30.1320005 33.5319996,30.2209996 33.604,30.291 C33.6760004,30.3610004 33.7659995,30.396 33.874,30.396 Z M34.882,25.146 C34.9900005,25.146 35.0919995,25.1749997 35.188,25.233 C35.2840005,25.2910003 35.3599997,25.3679995 35.416,25.464 C35.4720003,25.5600005 35.5,25.6639994 35.5,25.776 L35.5,30.024 C35.5,30.1360006 35.4720003,30.2399995 35.416,30.336 C35.3599997,30.4320005 35.2840005,30.5089997 35.188,30.567 C35.0919995,30.6250003 34.9900005,30.654 34.882,30.654 L32.878,30.654 C32.7659994,30.654 32.6620005,30.6250003 32.566,30.567 C32.4699995,30.5089997 32.3940003,30.4320005 32.338,30.336 C32.2819997,30.2399995 32.254,30.1360006 32.254,30.024 L32.254,25.776 C32.254,25.6639994 32.2819997,25.5600005 32.338,25.464 C32.3940003,25.3679995 32.4699995,25.2910003 32.566,25.233 C32.6620005,25.1749997 32.7659994,25.146 32.878,25.146 L34.882,25.146 Z" id="phone_iphone---material" fill="#FFFFFF"></path>
                    <path d="M57.814,17.17 C57.9860009,17.0539994 58.1189995,16.9060009 58.213,16.726 C58.3070005,16.5459991 58.354,16.354001 58.354,16.15 C58.354,15.9219989 58.2980006,15.712001 58.186,15.52 C58.0739994,15.327999 57.922001,15.1760006 57.73,15.064 C57.537999,14.9519994 57.3280011,14.896 57.1,14.896 C56.8719989,14.896 56.662001,14.9519994 56.47,15.064 C56.277999,15.1760006 56.1260006,15.327999 56.014,15.52 C55.9019994,15.712001 55.846,15.9219989 55.846,16.15 C55.846,16.354001 55.8929995,16.5459991 55.987,16.726 C56.0810005,16.9060009 56.2139991,17.0539994 56.386,17.17 L56.596,17.32 L56.596,17.896 L57.604,17.896 L57.604,17.32 L57.814,17.17 Z M57.1,14.404 C57.4160016,14.404 57.7099986,14.4839992 57.982,14.644 C58.2420013,14.8000008 58.4499992,15.0079987 58.606,15.268 C58.7660008,15.5400014 58.846,15.8339984 58.846,16.15 C58.846,16.4460015 58.7780007,16.7199987 58.642,16.972 C58.5099993,17.2120012 58.3280012,17.4139992 58.096,17.578 L58.096,18.154 C58.096,18.2220003 58.0720002,18.2799998 58.024,18.328 C57.9759998,18.3760002 57.9180003,18.4 57.85,18.4 L56.35,18.4 C56.2819997,18.4 56.2240002,18.3760002 56.176,18.328 C56.1279998,18.2799998 56.104,18.2220003 56.104,18.154 L56.104,17.578 C55.8719988,17.4139992 55.6900007,17.2120012 55.558,16.972 C55.4219993,16.7199987 55.354,16.4460015 55.354,16.15 C55.354,15.8339984 55.4339992,15.5400014 55.594,15.268 C55.7500008,15.0079987 55.9579987,14.8000008 56.218,14.644 C56.4900014,14.4839992 56.7839984,14.404 57.1,14.404 Z M56.35,19.15 L56.35,18.904 L57.85,18.904 L57.85,19.15 C57.85,19.2180003 57.8260002,19.2759998 57.778,19.324 C57.7299998,19.3720002 57.6720003,19.396 57.604,19.396 L56.596,19.396 C56.5279997,19.396 56.4700002,19.3720002 56.422,19.324 C56.3739998,19.2759998 56.35,19.2180003 56.35,19.15 Z" id="lightbulb_outline---material" fill="#FFFFFF"></path>
                    <path d="M49.996,35.146 C50.2120011,35.146 50.4519987,35.1779997 50.716,35.242 C51.0080015,35.3180004 51.2459991,35.4159994 51.43,35.536 C51.6460011,35.6800007 51.754,35.8419991 51.754,36.022 L51.754,36.646 L50.254,36.646 L50.254,36.022 C50.254,35.6819983 50.0900016,35.3940012 49.762,35.158 C49.8180003,35.15 49.8959995,35.146 49.996,35.146 Z M48.004,35.146 C48.2200011,35.146 48.4579987,35.1779997 48.718,35.242 C49.0100015,35.3180004 49.2459991,35.4159994 49.426,35.536 C49.6420011,35.6800007 49.75,35.8419991 49.75,36.022 L49.75,36.646 L46.246,36.646 L46.246,36.022 C46.246,35.8419991 46.3539989,35.6800007 46.57,35.536 C46.7540009,35.4159994 46.9919985,35.3180004 47.284,35.242 C47.5480013,35.1779997 47.7879989,35.146 48.004,35.146 Z M48.004,34.654 C47.8719993,34.654 47.7480006,34.6200003 47.632,34.552 C47.5159994,34.4839997 47.4240003,34.3920006 47.356,34.276 C47.2879997,34.1599994 47.254,34.0360007 47.254,33.904 C47.254,33.7719993 47.2879997,33.6480006 47.356,33.532 C47.4240003,33.4159994 47.5159994,33.3240003 47.632,33.256 C47.7480006,33.1879997 47.8719993,33.154 48.004,33.154 C48.1360007,33.154 48.2589994,33.1879997 48.373,33.256 C48.4870006,33.3240003 48.5769997,33.4149994 48.643,33.529 C48.7090003,33.6430006 48.742,33.7679993 48.742,33.904 C48.742,34.0400007 48.7090003,34.1649994 48.643,34.279 C48.5769997,34.3930006 48.4870006,34.4839997 48.373,34.552 C48.2589994,34.6200003 48.1360007,34.654 48.004,34.654 Z M49.996,34.654 C49.8639993,34.654 49.7400006,34.6200003 49.624,34.552 C49.5079994,34.4839997 49.4160003,34.3920006 49.348,34.276 C49.2799997,34.1599994 49.246,34.0360007 49.246,33.904 C49.246,33.7719993 49.2799997,33.6480006 49.348,33.532 C49.4160003,33.4159994 49.5079994,33.3240003 49.624,33.256 C49.7400006,33.1879997 49.8639993,33.154 49.996,33.154 C50.1280007,33.154 50.2519994,33.1879997 50.368,33.256 C50.4840006,33.3240003 50.5759997,33.4159994 50.644,33.532 C50.7120003,33.6480006 50.746,33.7719993 50.746,33.904 C50.746,34.0360007 50.7120003,34.1599994 50.644,34.276 C50.5759997,34.3920006 50.4840006,34.4839997 50.368,34.552 C50.2519994,34.6200003 50.1280007,34.654 49.996,34.654 Z" id="people---material" fill="#FFFFFF"></path>
                    <path d="M42.746,5.146 L42.746,4.654 L46.25,4.654 L46.25,5.146 L42.746,5.146 Z M42.746,6.646 L42.746,6.154 L46.25,6.154 L46.25,6.646 L42.746,6.646 Z M42.746,3.154 L46.25,3.154 L46.25,3.646 L42.746,3.646 L42.746,3.154 Z M41.504,4.654 L41.504,4.396 L42.254,4.396 L42.254,4.63 L41.798,5.146 L42.254,5.146 L42.254,5.404 L41.504,5.404 L41.504,5.17 L41.948,4.654 L41.504,4.654 Z M41.75,3.904 L41.75,3.154 L41.504,3.154 L41.504,2.896 L41.996,2.896 L41.996,3.904 L41.75,3.904 Z M41.504,6.154 L41.504,5.896 L42.254,5.896 L42.254,6.904 L41.504,6.904 L41.504,6.646 L41.996,6.646 L41.996,6.526 L41.75,6.526 L41.75,6.268 L41.996,6.268 L41.996,6.154 L41.504,6.154 Z" id="format_list_numbered---material" fill="#FFFFFF"></path>
                    <path d="M74.596,22.154 L76.846,19.904 L76.492,19.538 L74.596,21.44 L73.708,20.546 L73.354,20.9 L74.596,22.154 Z M76.846,18.65 C76.9860007,18.65 77.1049995,18.6999995 77.203,18.8 C77.3010005,18.9000005 77.35,19.0179993 77.35,19.154 L77.35,22.646 C77.35,22.7820007 77.3010005,22.8999995 77.203,23 C77.1049995,23.1000005 76.9860007,23.15 76.846,23.15 L73.354,23.15 C73.2139993,23.15 73.0950005,23.1000005 72.997,23 C72.8989995,22.8999995 72.85,22.7820007 72.85,22.646 L72.85,19.154 C72.85,19.0179993 72.8989995,18.9000005 72.997,18.8 C73.0950005,18.6999995 73.2139993,18.65 73.354,18.65 L76.846,18.65 Z" id="check_box---material" fill="#FFFFFF"></path>
                </g>
            </g>
        </g>
    </g>
</svg>
